<svg width="20" height="20" viewBox="0 0 20 20" fill="none" xmlns="http://www.w3.org/2000/svg">
<path d="M1.66667 16.6667V15.8333C1.66667 14.2862 2.28125 12.8025 3.37522 11.7085C4.46918 10.6146 5.95291 10 7.5 10V10" stroke="#0D09FF" stroke-width="1.5" stroke-linecap="round" stroke-linejoin="round"/>
<path d="M13.17 10.2605C13.2964 10.1219 13.4503 10.0111 13.6219 9.93527C13.7935 9.85947 13.9791 9.82031 14.1667 9.82031C14.3543 9.82031 14.5398 9.85947 14.7115 9.93527C14.8831 10.0111 15.037 10.1219 15.1633 10.2605V10.2605C15.4342 10.558 15.8217 10.7189 16.2233 10.6997C16.4108 10.6909 16.5981 10.7214 16.7732 10.7891C16.9482 10.8569 17.1072 10.9604 17.2399 11.0931C17.3726 11.2259 17.4762 11.3848 17.5439 11.5599C17.6117 11.7349 17.6421 11.9222 17.6333 12.1097V12.1097C17.6142 12.5105 17.775 12.8989 18.0717 13.1697C18.6592 13.7047 18.6592 14.628 18.0717 15.163C17.775 15.4339 17.6142 15.8214 17.6333 16.223C17.6421 16.4105 17.6117 16.5978 17.5439 16.7729C17.4762 16.9479 17.3726 17.1069 17.2399 17.2396C17.1072 17.3723 16.9482 17.4759 16.7732 17.5436C16.5981 17.6114 16.4108 17.6418 16.2233 17.633V17.633C16.0253 17.6237 15.8276 17.6581 15.6444 17.7339C15.4612 17.8096 15.2969 17.9249 15.1633 18.0714C15.037 18.2101 14.8831 18.3208 14.7115 18.3966C14.5398 18.4724 14.3543 18.5116 14.1667 18.5116C13.9791 18.5116 13.7935 18.4724 13.6219 18.3966C13.4503 18.3208 13.2964 18.2101 13.17 18.0714V18.0714C13.0364 17.9249 12.8722 17.8096 12.6889 17.7339C12.5057 17.6581 12.3081 17.6237 12.11 17.633V17.633C11.9225 17.6418 11.7352 17.6114 11.5602 17.5436C11.3851 17.4759 11.2262 17.3723 11.0934 17.2396C10.9607 17.1069 10.8572 16.9479 10.7894 16.7729C10.7217 16.5978 10.6912 16.4105 10.7 16.223V16.223C10.7093 16.0249 10.6747 15.8272 10.5988 15.644C10.5229 15.4608 10.4075 15.2966 10.2608 15.163V15.163C10.1222 15.0367 10.0114 14.8828 9.93558 14.7112C9.85977 14.5395 9.82062 14.354 9.82062 14.1664C9.82062 13.9788 9.85977 13.7932 9.93558 13.6216C10.0114 13.45 10.1222 13.2961 10.2608 13.1697V13.1697C10.5583 12.8989 10.7192 12.5114 10.7 12.1097C10.6912 11.9222 10.7217 11.7349 10.7894 11.5599C10.8572 11.3848 10.9607 11.2259 11.0934 11.0931C11.2262 10.9604 11.3851 10.8569 11.5602 10.7891C11.7352 10.7214 11.9225 10.6909 12.11 10.6997V10.6997C12.5108 10.7189 12.8992 10.558 13.17 10.2605V10.2605Z" stroke="#0D09FF" stroke-width="1.5"/>
<path d="M12.8033 14.1661L13.7117 15.0745L15.53 13.2578" stroke="#0D09FF" stroke-width="1.5" stroke-linecap="round" stroke-linejoin="round"/>
<path d="M7.50001 9.99967C8.38406 9.99967 9.23191 9.64849 9.85703 9.02336C10.4821 8.39824 10.8333 7.5504 10.8333 6.66634C10.8333 5.78229 10.4821 4.93444 9.85703 4.30932C9.23191 3.6842 8.38406 3.33301 7.50001 3.33301C6.61595 3.33301 5.7681 3.6842 5.14298 4.30932C4.51786 4.93444 4.16667 5.78229 4.16667 6.66634C4.16667 7.5504 4.51786 8.39824 5.14298 9.02336C5.7681 9.64849 6.61595 9.99967 7.50001 9.99967V9.99967Z" stroke="#0D09FF" stroke-width="1.5" stroke-linecap="round" stroke-linejoin="round"/>
</svg>
